<svg xmlns="http://www.w3.org/2000/svg" width="32.265" height="21.51" viewBox="0 0 32.265 21.51"><defs><style>.a{font-size:12px;font-family: Poppins-Regular, Poppins;}</style></defs><path class="a" d="M32.07,14.437A17.967,17.967,0,0,0,16.133,4.5,17.969,17.969,0,0,0,.195,14.438a1.812,1.812,0,0,0,0,1.635A17.967,17.967,0,0,0,16.133,26.01,17.969,17.969,0,0,0,32.07,16.072,1.812,1.812,0,0,0,32.07,14.437ZM16.133,23.321A8.066,8.066,0,1,1,24.2,15.255,8.066,8.066,0,0,1,16.133,23.321Zm0-13.444a5.339,5.339,0,0,0-1.418.212,2.68,2.68,0,0,1-3.747,3.747,5.365,5.365,0,1,0,5.165-3.96Z" transform="translate(0 -4.5)"/></svg>
