<svg xmlns="http://www.w3.org/2000/svg" width="22.384" height="26.115" viewBox="0 0 22.384 26.115"><path d="M24.4,3H6.987A2.486,2.486,0,0,0,4.5,5.487V22.9a2.486,2.486,0,0,0,2.487,2.487h4.974l3.731,3.731,3.731-3.731H24.4A2.494,2.494,0,0,0,26.884,22.9V5.487A2.494,2.494,0,0,0,24.4,3ZM16.936,22.9H14.449V20.41h2.487ZM19.51,13.26,18.391,14.4a4.234,4.234,0,0,0-1.455,3.519H14.449V17.3A5.005,5.005,0,0,1,15.9,13.782l1.542-1.567a2.432,2.432,0,0,0,.734-1.753,2.487,2.487,0,0,0-4.974,0H10.718a4.974,4.974,0,0,1,9.949,0,3.957,3.957,0,0,1-1.157,2.8Z" transform="translate(-4.5 -3)"/></svg>