<svg xmlns="http://www.w3.org/2000/svg" width="60" height="51.594" viewBox="0 0 60 51.594"><defs><style>.a{font-size:12px;font-family: Poppins-Regular, Poppins;}</style></defs><g transform="translate(-272.564 -732.904)"><text class="a" transform="translate(302.564 780.498)"><tspan x="-29.515" y="0">Live Session</tspan></text><path d="M24.55,7.61H15.8l3.792-3.792L18.788,3l-4.61,4.61L9.568,3l-.818.818,3.8,3.792H3.805A2.3,2.3,0,0,0,1.5,9.915v13.83A2.312,2.312,0,0,0,3.805,26.05H24.55a2.312,2.312,0,0,0,2.305-2.305V9.915A2.3,2.3,0,0,0,24.55,7.61Zm0,16.135H3.805V9.915H24.55ZM10.72,12.22v9.22l8.068-4.61Z" transform="translate(288.387 729.904)"/></g></svg>
